<svg xmlns="http://www.w3.org/2000/svg" width="20" height="20">
    <style>
        #o { fill: black; }
        @media (prefers-color-scheme: dark) {
            #o { fill: white; }
        }
    </style>
    <path fill="#009acd" d="M20.171 13.315c0 1.45-1.158 2.626-2.586 2.626-1.427 0-2.585-1.176-2.585-2.626 0-1.452 1.158-2.628 2.585-2.628 1.428 0 2.586 1.176 2.586 2.628"/>
    <path id="o" d="M7.024 12.297c-1.493 0-2.562-1.289-2.562-2.783 0-1.47.98-2.737 2.517-2.737 1.492 0 2.561 1.29 2.561 2.782 0 1.471-.98 2.738-2.516 2.738m0-9.164C3.148 3.133.34 6.075.34 9.56c0 3.485 2.784 6.382 6.638 6.382 3.876 0 6.682-2.942 6.682-6.427 0-3.485-2.784-6.38-6.637-6.38"/>
</svg>